Coordinates
version=1
nRows=31
nColumns=34
inDegrees=no

Units are S.I. units (second, meters, Newtons, ...)
If the header above contains a line with 'inDegrees', this indicates whether rotational values are in degrees (yes) or radians (no).

endheader
time	pelvis_tilt	pelvis_list	pelvis_rotation	pelvis_tx	pelvis_ty	pelvis_tz	hip_flexion_r	hip_adduction_r	hip_rotation_r	knee_angle_r	ankle_angle_r	subtalar_angle_r	mtp_angle_r	hip_flexion_l	hip_adduction_l	hip_rotation_l	knee_angle_l	ankle_angle_l	subtalar_angle_l	mtp_angle_l	lumbar_extension	lumbar_bending	lumbar_rotation	arm_flex_r	arm_add_r	arm_rot_r	elbow_flex_r	pro_sup_r	arm_flex_l	arm_add_l	arm_rot_l	elbow_flex_l	pro_sup_l
1.45	-0.242829	-0.157572	0.00754384	-0.368262	0.902028	-0.598173	0.728636	0.01677	-0.0638823	0.407594	-0.799386	-0.3691	-0.105237	0.875645	-0.294256	-0.00987296	0.561203	-0.417416	0.043501	-0.105238	-0.533768	0.148698	0.049547	-0.223846	-0.546579	-0.104089	1.0667	1.60676	-0.168389	-0.69787	0.0373461	0.847386	1.6093
1.46	-0.260524	-0.141441	-0.00215751	-0.358426	0.870384	-0.599414	0.812618	-0.014353	-0.0862796	0.578207	-0.444863	-0.230096	-0.105228	0.937697	-0.275988	0.0126835	0.696239	-0.182244	0.00644651	-0.105229	-0.510595	0.132663	0.0373651	-0.290296	-0.541074	-0.117447	1.02576	1.59421	-0.260475	-0.665665	-0.00178834	0.837566	1.58665
1.47	-0.278149	-0.125958	-0.0101525	-0.349537	0.840595	-0.600551	0.894266	-0.0412149	-0.101586	0.73493	-0.146951	-0.124089	-0.105219	1.00066	-0.257488	0.0327331	0.822875	0.0135401	-0.0273973	-0.10522	-0.491862	0.117198	0.0255966	-0.347596	-0.531111	-0.135957	0.98594	1.58303	-0.339261	-0.632438	-0.0396356	0.825773	1.56771
1.48	-0.295535	-0.111353	-0.0165077	-0.341494	0.812646	-0.601592	0.973352	-0.0636149	-0.109531	0.877622	0.0935929	-0.051215	-0.10521	1.06431	-0.238947	0.0504447	0.941022	0.170324	-0.0578815	-0.105212	-0.477739	0.102449	0.0143693	-0.395705	-0.516767	-0.159574	0.947358	1.57321	-0.404692	-0.598233	-0.0761598	0.812016	1.55253
1.49	-0.312159	-0.097929	-0.0213349	-0.334334	0.786668	-0.602541	1.04923	-0.0813711	-0.110098	1.00629	0.277295	-0.00951717	-0.105201	1.12785	-0.22078	0.0661704	1.05046	0.289791	-0.0847218	-0.105203	-0.468667	0.0887762	0.0039623	-0.434556	-0.498304	-0.188078	0.910418	1.56477	-0.456687	-0.563207	-0.11124	0.796374	1.54117
1.5	-0.327215	-0.0861143	-0.024759	-0.327791	0.763366	-0.603425	1.12061	-0.0945777	-0.103971	1.12115	0.407951	0.00579041	-0.105192	1.18967	-0.203483	0.0803178	1.15083	0.375712	-0.10755	-0.105194	-0.465388	0.0765888	-0.00533064	-0.464133	-0.476246	-0.220832	0.875827	1.55784	-0.495259	-0.527739	-0.14464	0.779106	1.53356
1.51	-0.33975	-0.0762961	-0.0268981	-0.321777	0.742827	-0.60426	1.18569	-0.10363	-0.0926584	1.22253	0.493147	0.00141549	-0.105183	1.24758	-0.187535	0.0932122	1.24169	0.43393	-0.126009	-0.105185	-0.468614	0.0662571	-0.0133065	-0.484516	-0.451397	-0.256522	0.844505	1.55261	-0.520652	-0.492493	-0.17595	0.760721	1.52936
1.52	-0.349239	-0.0686336	-0.0278866	-0.31647	0.724736	-0.605083	1.24274	-0.10914	-0.0781273	1.31076	0.543139	-0.0154914	-0.105175	1.29946	-0.173306	0.105001	1.32262	0.471471	-0.139925	-0.105176	-0.478548	0.0579725	-0.0199059	-0.495946	-0.424816	-0.293004	0.817425	1.54931	-0.533431	-0.458421	-0.204512	0.741984	1.52795
1.53	-0.355706	-0.0630512	-0.0279236	-0.311693	0.708711	-0.60587	1.29089	-0.111816	-0.0622922	1.38632	0.568915	-0.0385543	-0.105166	1.34414	-0.160978	0.115687	1.39337	0.495254	-0.149425	-0.105167	-0.494444	0.0516689	-0.0252108	-0.498856	-0.39775	-0.327377	0.795463	1.54794	-0.534493	-0.426703	-0.229353	0.723871	1.52843
1.54	-0.359868	-0.0592061	-0.0272481	-0.307347	0.694501	-0.606602	1.33049	-0.11237	-0.0466225	1.45	0.580371	-0.0628328	-0.105157	1.38162	-0.15051	0.125216	1.45411	0.510989	-0.154985	-0.105158	-0.514653	0.0470591	-0.0294259	-0.493884	-0.371505	-0.356295	0.779279	1.54815	-0.525019	-0.398609	-0.249224	0.707482	1.52968
1.55	-0.362894	-0.0565647	-0.0260853	-0.303388	0.68182	-0.607274	1.36292	-0.1115	-0.0319847	1.50307	0.585116	-0.0850139	-0.105148	1.41296	-0.141631	0.133527	1.5055	0.522571	-0.157409	-0.105149	-0.537025	0.0436828	-0.0328512	-0.481811	-0.347315	-0.37645	0.769274	1.54916	-0.506356	-0.37534	-0.262746	0.693975	1.53049
1.56	-0.366036	-0.0545159	-0.0246059	-0.299848	0.670401	-0.60791	1.39026	-0.109877	-0.0186988	1.54716	0.587979	-0.103303	-0.105139	1.43985	-0.133897	0.140569	1.54865	0.532041	-0.157732	-0.10514	-0.559439	0.0410029	-0.0358353	-0.463429	-0.32621	-0.385097	0.765558	1.54975	-0.479856	-0.357852	-0.268663	0.684478	1.52961
1.57	-0.37029	-0.0525071	-0.0229075	-0.296715	0.660215	-0.608494	1.41466	-0.108126	-0.00672814	1.5841	0.591133	-0.11714	-0.10513	1.46404	-0.126811	0.146308	1.58487	0.539969	-0.157066	-0.105132	-0.580269	0.03854	-0.0386952	-0.439416	-0.308925	-0.380537	0.767966	1.54847	-0.446684	-0.346706	-0.266119	0.679978	1.5258
1.58	-0.376214	-0.0501792	-0.0210175	-0.293936	0.65123	-0.609029	1.43794	-0.106796	0.00409405	1.61566	0.594687	-0.126814	-0.105121	1.48694	-0.119937	0.150747	1.61544	0.54607	-0.156408	-0.105123	-0.598647	0.0359852	-0.0416259	-0.410244	-0.295835	-0.362446	0.776084	1.54395	-0.40766	-0.341982	-0.254878	0.681169	1.51812
1.59	-0.383816	-0.0474215	-0.0189123	-0.291427	0.6435	-0.609552	1.4613	-0.106323	0.0138872	1.64327	0.597525	-0.133064	-0.105113	1.50939	-0.113004	0.153949	1.64143	0.549823	-0.156463	-0.105114	-0.614411	0.0332606	-0.0446389	-0.376158	-0.286954	-0.331917	0.789249	1.53529	-0.363198	-0.343262	-0.235423	0.688302	1.5061
1.6	-0.392823	-0.0443351	-0.0165551	-0.289175	0.637004	-0.610086	1.48525	-0.106989	0.0226382	1.66798	0.598157	-0.136732	-0.105104	1.53166	-0.105983	0.156036	1.66362	0.550931	-0.157531	-0.105105	-0.62796	0.0304983	-0.047574	-0.337176	-0.281997	-0.291184	0.806521	1.52228	-0.313397	-0.349697	-0.208932	0.701114	1.48998
1.61	-0.402804	-0.0411966	-0.0139793	-0.287226	0.631651	-0.610643	1.50969	-0.108882	0.0302077	1.69033	0.595398	-0.138544	-0.105095	1.55359	-0.0991076	0.157158	1.6825	0.549536	-0.159479	-0.105096	-0.639915	0.0279367	-0.0501703	-0.293148	-0.280487	-0.243113	0.82667	1.50553	-0.258229	-0.360131	-0.177105	0.718876	1.47074
1.62	-0.413325	-0.0383497	-0.0113241	-0.285601	0.627325	-0.611214	1.53412	-0.11189	0.0363921	1.71044	0.588778	-0.138975	-0.105086	1.5748	-0.0928437	0.157471	1.69835	0.5462	-0.161804	-0.105087	-0.650857	0.0258065	-0.0521329	-0.243865	-0.281864	-0.190664	0.848237	1.48635	-0.197748	-0.373256	-0.141896	0.740566	1.44997
1.63	-0.424014	-0.0360848	-0.00882355	-0.284272	0.623885	-0.61176	1.55785	-0.115746	0.0410111	1.72816	0.578678	-0.138199	-0.105077	1.59489	-0.0877749	0.157108	1.71135	0.541734	-0.163802	-0.105078	-0.661188	0.0242449	-0.053191	-0.189199	-0.28558	-0.136454	0.869691	1.46643	-0.132235	-0.387757	-0.10522	0.765104	1.42947
1.64	-0.434549	-0.0345794	-0.0067445	-0.283202	0.621224	-0.61227	1.5801	-0.120132	0.0439802	1.74318	0.566208	-0.136133	-0.105068	1.61349	-0.0844255	0.156176	1.72165	0.536969	-0.164773	-0.10507	-0.671111	0.0232525	-0.0531526	-0.129247	-0.291155	-0.0825112	0.889678	1.44718	-0.0622505	-0.402437	-0.0686751	0.791574	1.41061
1.65	-0.444655	-0.0338716	-0.0052868	-0.282347	0.619248	-0.612732	1.60013	-0.124801	0.0453413	1.75521	0.552912	-0.132549	-0.10506	1.63028	-0.0830681	0.15477	1.72947	0.532543	-0.164225	-0.105061	-0.680718	0.0227386	-0.0519445	-0.0644286	-0.298175	-0.0302853	0.907245	1.42953	0.0114156	-0.416295	-0.0333912	0.819328	1.3941
1.66	-0.454088	-0.0338719	-0.00449061	-0.281678	0.617875	-0.61316	1.61734	-0.129668	0.0452558	1.7641	0.540379	-0.127245	-0.105051	1.64503	-0.0835916	0.152988	1.73502	0.528774	-0.162014	-0.105052	-0.690067	0.022593	-0.0496253	0.00447868	-0.306272	0.0191719	0.921972	1.41401	0.0878464	-0.428558	3.14977e-05	0.847923	1.38018
1.67	-0.462643	-0.0343919	-0.00420913	-0.281151	0.617034	-0.613587	1.63136	-0.134828	0.0439821	1.76993	0.529873	-0.120194	-0.105042	1.65757	-0.0854857	0.150935	1.73859	0.525627	-0.158412	-0.105043	-0.699206	0.0227321	-0.0463781	0.0763822	-0.315074	0.0649932	0.933951	1.40117	0.166107	-0.43868	0.0314727	0.876979	1.36903
1.68	-0.470173	-0.0351767	-0.0041528	-0.280725	0.616669	-0.614052	1.64212	-0.140483	0.0418544	1.77297	0.522073	-0.111625	-0.105033	1.66784	-0.08795	0.148706	1.74043	0.522776	-0.154061	-0.105034	-0.708148	0.0230929	-0.0425196	0.150017	-0.324162	0.106432	0.943632	1.39163	0.245293	-0.446337	0.0611517	0.906037	1.3609
1.69	-0.476612	-0.0359338	-0.00397141	-0.280366	0.616736	-0.614588	1.64986	-0.146836	0.0392626	1.7737	0.516989	-0.102026	-0.105024	1.67587	-0.0900788	0.146373	1.74079	0.519735	-0.149847	-0.105025	-0.716826	0.0236075	-0.0385167	0.224148	-0.333045	0.142963	0.951584	1.38567	0.324523	-0.451401	0.0894257	0.934493	1.35577
1.7	-0.48197	-0.0363975	-0.00335816	-0.280037	0.617232	-0.61521	1.65506	-0.153969	0.0366046	1.77268	0.514055	-0.0920441	-0.105016	1.68177	-0.0910613	0.144002	1.73986	0.516013	-0.146719	-0.105017	-0.725086	0.0241941	-0.0348549	0.297659	-0.341197	0.174281	0.958335	1.38316	0.403018	-0.45386	0.116684	0.961544	1.35321
1.71	-0.486315	-0.0364054	-0.00215685	-0.279695	0.618183	-0.615898	1.65828	-0.161743	0.034226	1.77043	0.512338	-0.0823585	-0.105007	1.68568	-0.0903612	0.141692	1.73781	0.511251	-0.145495	-0.105008	-0.732716	0.024756	-0.0318684	0.369605	-0.348127	0.200321	0.964246	1.38361	0.480169	-0.45373	0.143268	0.986185	1.3524
1.72	-0.489761	-0.03595	-0.000429148	-0.279313	0.619608	-0.616616	1.66006	-0.169734	0.032356	1.76738	0.510806	-0.0735738	-0.104998	1.68779	-0.0878478	0.139617	1.73476	0.505314	-0.146696	-0.104999	-0.739494	0.0251838	-0.0296104	0.439256	-0.353456	0.221299	0.969443	1.38632	0.555551	-0.450997	0.169407	1.00732	1.3523
1.73	-0.49244	-0.035184	0.00153094	-0.278875	0.621504	-0.617312	1.66072	-0.177256	0.0310603	1.76375	0.508569	-0.0661528	-0.104989	1.68823	-0.0838289	0.138034	1.73079	0.498324	-0.150449	-0.10499	-0.745232	0.0253756	-0.0278275	0.506137	-0.35694	0.237749	0.973801	1.39054	0.628861	-0.445623	0.195173	1.02395	1.35192
1.74	-0.494454	-0.0343934	0.00325354	-0.278404	0.623775	-0.617906	1.66035	-0.183474	0.0302423	1.75953	0.505053	-0.0603884	-0.10498	1.68712	-0.0789565	0.137259	1.72601	0.49061	-0.156478	-0.104981	-0.749792	0.0252659	-0.0260589	0.570027	-0.358462	0.250497	0.977014	1.39557	0.699827	-0.437615	0.220485	1.03541	1.35051
1.75	-0.495875	-0.0339214	0.00425496	-0.277883	0.626376	-0.618335	1.65878	-0.187582	0.0296885	1.75456	0.500089	-0.0564051	-0.104972	1.68453	-0.0740448	0.137596	1.72048	0.482608	-0.16421	-0.104973	-0.753079	0.0248444	-0.023794	0.630907	-0.357991	0.260543	0.978755	1.40091	0.768109	-0.427114	0.245146	1.04165	1.34764
